0
SECTION
2
HEADER
9
$INSUNITS
70
4
0
ENDSEC
0
SECTION
2
TABLES
0
TABLE
2
LTYPE
0
LTYPE
72
65
70
64
2
CONTINUOUS
3
______
73
0
40
0
0
ENDTAB
0
TABLE
2
LAYER
0
ENDTAB
0
ENDSEC
0
SECTION
2
ENTITIES
0
ARC
8
0
10
0.5
20
-18.55
40
0.5
50
180
51
270
0
ARC
8
0
10
18.55
20
-18.55
40
0.5
50
270
51
0
0
ARC
8
0
10
18.55
20
-0.5
40
0.5
50
0
51
90
0
ARC
8
0
10
0.5
20
-0.5
40
0.5
50
90
51
180
0
LINE
8
0
10
0.5
20
-19.05
11
18.55
21
-19.05
0
LINE
8
0
10
18.55
20
0
11
0.5
21
0
0
LINE
8
0
10
19.05
20
-18.55
11
19.05
21
-0.5
0
LINE
8
0
10
0
20
-0.5
11
0
21
-18.55
0
ARC
8
0
10
19.55
20
-18.55
40
0.5
50
180
51
270
0
ARC
8
0
10
37.6
20
-18.55
40
0.5
50
270
51
0
0
ARC
8
0
10
37.6
20
-0.5
40
0.5
50
0
51
90
0
ARC
8
0
10
19.55
20
-0.5
40
0.5
50
90
51
180
0
LINE
8
0
10
19.55
20
-19.05
11
37.6
21
-19.05
0
LINE
8
0
10
37.6
20
0
11
19.55
21
0
0
LINE
8
0
10
38.1
20
-18.55
11
38.1
21
-0.5
0
LINE
8
0
10
19.05
20
-0.5
11
19.05
21
-18.55
0
ARC
8
0
10
38.6
20
-18.55
40
0.5
50
180
51
270
0
ARC
8
0
10
56.65
20
-18.55
40
0.5
50
270
51
0
0
ARC
8
0
10
56.65
20
-0.5
40
0.5
50
0
51
90
0
ARC
8
0
10
38.6
20
-0.5
40
0.5
50
90
51
180
0
LINE
8
0
10
38.6
20
-19.05
11
56.65
21
-19.05
0
LINE
8
0
10
56.65
20
0
11
38.6
21
0
0
LINE
8
0
10
57.15
20
-18.55
11
57.15
21
-0.5
0
LINE
8
0
10
38.1
20
-0.5
11
38.1
21
-18.55
0
ARC
8
0
10
57.65
20
-18.55
40
0.5
50
180
51
270
0
ARC
8
0
10
75.7
20
-18.55
40
0.5
50
270
51
0
0
ARC
8
0
10
75.7
20
-0.5
40
0.5
50
0
51
90
0
ARC
8
0
10
57.65
20
-0.5
40
0.5
50
90
51
180
0
LINE
8
0
10
57.65
20
-19.05
11
75.7
21
-19.05
0
LINE
8
0
10
75.7
20
0
11
57.65
21
0
0
LINE
8
0
10
76.2
20
-18.55
11
76.2
21
-0.5
0
LINE
8
0
10
57.15
20
-0.5
11
57.15
21
-18.55
0
ARC
8
0
10
76.7
20
-18.55
40
0.5
50
180
51
270
0
ARC
8
0
10
94.75
20
-18.55
40
0.5
50
270
51
0
0
ARC
8
0
10
94.75
20
-0.5
40
0.5
50
0
51
90
0
ARC
8
0
10
76.7
20
-0.5
40
0.5
50
90
51
180
0
LINE
8
0
10
76.7
20
-19.05
11
94.75
21
-19.05
0
LINE
8
0
10
94.75
20
0
11
76.7
21
0
0
LINE
8
0
10
95.25
20
-18.55
11
95.25
21
-0.5
0
LINE
8
0
10
76.2
20
-0.5
11
76.2
21
-18.55
0
ARC
8
0
10
95.75
20
-18.55
40
0.5
50
180
51
270
0
ARC
8
0
10
113.8
20
-18.55
40
0.5
50
270
51
0
0
ARC
8
0
10
113.8
20
-0.5
40
0.5
50
0
51
90
0
ARC
8
0
10
95.75
20
-0.5
40
0.5
50
90
51
180
0
LINE
8
0
10
95.75
20
-19.05
11
113.8
21
-19.05
0
LINE
8
0
10
113.8
20
0
11
95.75
21
0
0
LINE
8
0
10
114.3
20
-18.55
11
114.3
21
-0.5
0
LINE
8
0
10
95.25
20
-0.5
11
95.25
21
-18.55
0
ARC
8
0
10
114.8
20
-18.55
40
0.5
50
180
51
270
0
ARC
8
0
10
132.85
20
-18.55
40
0.5
50
270
51
0
0
ARC
8
0
10
132.85
20
-0.5
40
0.5
50
0
51
90
0
ARC
8
0
10
114.8
20
-0.5
40
0.5
50
90
51
180
0
LINE
8
0
10
114.8
20
-19.05
11
132.85
21
-19.05
0
LINE
8
0
10
132.85
20
0
11
114.8
21
0
0
LINE
8
0
10
133.35
20
-18.55
11
133.35
21
-0.5
0
LINE
8
0
10
114.3
20
-0.5
11
114.3
21
-18.55
0
ARC
8
0
10
133.85
20
-18.55
40
0.5
50
180
51
270
0
ARC
8
0
10
151.9
20
-18.55
40
0.5
50
270
51
0
0
ARC
8
0
10
151.9
20
-0.5
40
0.5
50
0
51
90
0
ARC
8
0
10
133.85
20
-0.5
40
0.5
50
90
51
180
0
LINE
8
0
10
133.85
20
-19.05
11
151.9
21
-19.05
0
LINE
8
0
10
151.9
20
0
11
133.85
21
0
0
LINE
8
0
10
152.4
20
-18.55
11
152.4
21
-0.5
0
LINE
8
0
10
133.35
20
-0.5
11
133.35
21
-18.55
0
ARC
8
0
10
152.9
20
-18.55
40
0.5
50
180
51
270
0
ARC
8
0
10
170.95
20
-18.55
40
0.5
50
270
51
0
0
ARC
8
0
10
170.95
20
-0.5
40
0.5
50
0
51
90
0
ARC
8
0
10
152.9
20
-0.5
40
0.5
50
90
51
180
0
LINE
8
0
10
152.9
20
-19.05
11
170.95
21
-19.05
0
LINE
8
0
10
170.95
20
0
11
152.9
21
0
0
LINE
8
0
10
171.45
20
-18.55
11
171.45
21
-0.5
0
LINE
8
0
10
152.4
20
-0.5
11
152.4
21
-18.55
0
ARC
8
0
10
171.95
20
-18.55
40
0.5
50
180
51
270
0
ARC
8
0
10
190
20
-18.55
40
0.5
50
270
51
0
0
ARC
8
0
10
190
20
-0.5
40
0.5
50
0
51
90
0
ARC
8
0
10
171.95
20
-0.5
40
0.5
50
90
51
180
0
LINE
8
0
10
171.95
20
-19.05
11
190
21
-19.05
0
LINE
8
0
10
190
20
0
11
171.95
21
0
0
LINE
8
0
10
190.5
20
-18.55
11
190.5
21
-0.5
0
LINE
8
0
10
171.45
20
-0.5
11
171.45
21
-18.55
0
ARC
8
0
10
191
20
-18.55
40
0.5
50
180
51
270
0
ARC
8
0
10
209.05
20
-18.55
40
0.5
50
270
51
0
0
ARC
8
0
10
209.05
20
-0.5
40
0.5
50
0
51
90
0
ARC
8
0
10
191
20
-0.5
40
0.5
50
90
51
180
0
LINE
8
0
10
191
20
-19.05
11
209.05
21
-19.05
0
LINE
8
0
10
209.05
20
0
11
191
21
0
0
LINE
8
0
10
209.55
20
-18.55
11
209.55
21
-0.5
0
LINE
8
0
10
190.5
20
-0.5
11
190.5
21
-18.55
0
ARC
8
0
10
210.05
20
-18.55
40
0.5
50
180
51
270
0
ARC
8
0
10
228.1
20
-18.55
40
0.5
50
270
51
0
0
ARC
8
0
10
228.1
20
-0.5
40
0.5
50
0
51
90
0
ARC
8
0
10
210.05
20
-0.5
40
0.5
50
90
51
180
0
LINE
8
0
10
210.05
20
-19.05
11
228.1
21
-19.05
0
LINE
8
0
10
228.1
20
0
11
210.05
21
0
0
LINE
8
0
10
228.6
20
-18.55
11
228.6
21
-0.5
0
LINE
8
0
10
209.55
20
-0.5
11
209.55
21
-18.55
0
ARC
8
0
10
229.1
20
-18.55
40
0.5
50
180
51
270
0
ARC
8
0
10
247.15
20
-18.55
40
0.5
50
270
51
0
0
ARC
8
0
10
247.15
20
-0.5
40
0.5
50
0
51
90
0
ARC
8
0
10
229.1
20
-0.5
40
0.5
50
90
51
180
0
LINE
8
0
10
229.1
20
-19.05
11
247.15
21
-19.05
0
LINE
8
0
10
247.15
20
0
11
229.1
21
0
0
LINE
8
0
10
247.65
20
-18.55
11
247.65
21
-0.5
0
LINE
8
0
10
228.6
20
-0.5
11
228.6
21
-18.55
0
ARC
8
0
10
248.15
20
-18.55
40
0.5
50
180
51
270
0
ARC
8
0
10
266.2
20
-18.55
40
0.5
50
270
51
0
0
ARC
8
0
10
266.2
20
-0.5
40
0.5
50
0
51
90
0
ARC
8
0
10
248.15
20
-0.5
40
0.5
50
90
51
180
0
LINE
8
0
10
248.15
20
-19.05
11
266.2
21
-19.05
0
LINE
8
0
10
266.2
20
0
11
248.15
21
0
0
LINE
8
0
10
266.7
20
-18.55
11
266.7
21
-0.5
0
LINE
8
0
10
247.65
20
-0.5
11
247.65
21
-18.55
0
ARC
8
0
10
267.2
20
-18.55
40
0.5
50
180
51
270
0
ARC
8
0
10
285.25
20
-18.55
40
0.5
50
270
51
0
0
ARC
8
0
10
285.25
20
-0.5
40
0.5
50
0
51
90
0
ARC
8
0
10
267.2
20
-0.5
40
0.5
50
90
51
180
0
LINE
8
0
10
267.2
20
-19.05
11
285.25
21
-19.05
0
LINE
8
0
10
285.25
20
0
11
267.2
21
0
0
LINE
8
0
10
285.75
20
-18.55
11
285.75
21
-0.5
0
LINE
8
0
10
266.7
20
-0.5
11
266.7
21
-18.55
0
ARC
8
0
10
0.5
20
-37.6
40
0.5
50
180
51
270
0
ARC
8
0
10
28.075
20
-37.6
40
0.5
50
270
51
0
0
ARC
8
0
10
28.075
20
-19.55
40
0.5
50
0
51
90
0
ARC
8
0
10
0.5
20
-19.55
40
0.5
50
90
51
180
0
LINE
8
0
10
0.5
20
-38.1
11
28.075
21
-38.1
0
LINE
8
0
10
28.075
20
-19.05
11
0.5
21
-19.05
0
LINE
8
0
10
28.575
20
-37.6
11
28.575
21
-19.55
0
LINE
8
0
10
0
20
-19.55
11
0
21
-37.6
0
ARC
8
0
10
29.075
20
-37.6
40
0.5
50
180
51
270
0
ARC
8
0
10
47.125
20
-37.6
40
0.5
50
270
51
0
0
ARC
8
0
10
47.125
20
-19.55
40
0.5
50
0
51
90
0
ARC
8
0
10
29.075
20
-19.55
40
0.5
50
90
51
180
0
LINE
8
0
10
29.075
20
-38.1
11
47.125
21
-38.1
0
LINE
8
0
10
47.125
20
-19.05
11
29.075
21
-19.05
0
LINE
8
0
10
47.625
20
-37.6
11
47.625
21
-19.55
0
LINE
8
0
10
28.575
20
-19.55
11
28.575
21
-37.6
0
ARC
8
0
10
48.125
20
-37.6
40
0.5
50
180
51
270
0
ARC
8
0
10
66.175
20
-37.6
40
0.5
50
270
51
0
0
ARC
8
0
10
66.175
20
-19.55
40
0.5
50
0
51
90
0
ARC
8
0
10
48.125
20
-19.55
40
0.5
50
90
51
180
0
LINE
8
0
10
48.125
20
-38.1
11
66.175
21
-38.1
0
LINE
8
0
10
66.175
20
-19.05
11
48.125
21
-19.05
0
LINE
8
0
10
66.675
20
-37.6
11
66.675
21
-19.55
0
LINE
8
0
10
47.625
20
-19.55
11
47.625
21
-37.6
0
ARC
8
0
10
67.175
20
-37.6
40
0.5
50
180
51
270
0
ARC
8
0
10
85.225
20
-37.6
40
0.5
50
270
51
0
0
ARC
8
0
10
85.225
20
-19.55
40
0.5
50
0
51
90
0
ARC
8
0
10
67.175
20
-19.55
40
0.5
50
90
51
180
0
LINE
8
0
10
67.175
20
-38.1
11
85.225
21
-38.1
0
LINE
8
0
10
85.225
20
-19.05
11
67.175
21
-19.05
0
LINE
8
0
10
85.725
20
-37.6
11
85.725
21
-19.55
0
LINE
8
0
10
66.675
20
-19.55
11
66.675
21
-37.6
0
ARC
8
0
10
86.225
20
-37.6
40
0.5
50
180
51
270
0
ARC
8
0
10
104.275
20
-37.6
40
0.5
50
270
51
0
0
ARC
8
0
10
104.275
20
-19.55
40
0.5
50
0
51
90
0
ARC
8
0
10
86.225
20
-19.55
40
0.5
50
90
51
180
0
LINE
8
0
10
86.225
20
-38.1
11
104.275
21
-38.1
0
LINE
8
0
10
104.275
20
-19.05
11
86.225
21
-19.05
0
LINE
8
0
10
104.775
20
-37.6
11
104.775
21
-19.55
0
LINE
8
0
10
85.725
20
-19.55
11
85.725
21
-37.6
0
ARC
8
0
10
105.275
20
-37.6
40
0.5
50
180
51
270
0
ARC
8
0
10
123.325
20
-37.6
40
0.5
50
270
51
0
0
ARC
8
0
10
123.325
20
-19.55
40
0.5
50
0
51
90
0
ARC
8
0
10
105.275
20
-19.55
40
0.5
50
90
51
180
0
LINE
8
0
10
105.275
20
-38.1
11
123.325
21
-38.1
0
LINE
8
0
10
123.325
20
-19.05
11
105.275
21
-19.05
0
LINE
8
0
10
123.825
20
-37.6
11
123.825
21
-19.55
0
LINE
8
0
10
104.775
20
-19.55
11
104.775
21
-37.6
0
ARC
8
0
10
124.325
20
-37.6
40
0.5
50
180
51
270
0
ARC
8
0
10
142.375
20
-37.6
40
0.5
50
270
51
0
0
ARC
8
0
10
142.375
20
-19.55
40
0.5
50
0
51
90
0
ARC
8
0
10
124.325
20
-19.55
40
0.5
50
90
51
180
0
LINE
8
0
10
124.325
20
-38.1
11
142.375
21
-38.1
0
LINE
8
0
10
142.375
20
-19.05
11
124.325
21
-19.05
0
LINE
8
0
10
142.875
20
-37.6
11
142.875
21
-19.55
0
LINE
8
0
10
123.825
20
-19.55
11
123.825
21
-37.6
0
ARC
8
0
10
143.375
20
-37.6
40
0.5
50
180
51
270
0
ARC
8
0
10
161.425
20
-37.6
40
0.5
50
270
51
0
0
ARC
8
0
10
161.425
20
-19.55
40
0.5
50
0
51
90
0
ARC
8
0
10
143.375
20
-19.55
40
0.5
50
90
51
180
0
LINE
8
0
10
143.375
20
-38.1
11
161.425
21
-38.1
0
LINE
8
0
10
161.425
20
-19.05
11
143.375
21
-19.05
0
LINE
8
0
10
161.925
20
-37.6
11
161.925
21
-19.55
0
LINE
8
0
10
142.875
20
-19.55
11
142.875
21
-37.6
0
ARC
8
0
10
162.425
20
-37.6
40
0.5
50
180
51
270
0
ARC
8
0
10
180.475
20
-37.6
40
0.5
50
270
51
0
0
ARC
8
0
10
180.475
20
-19.55
40
0.5
50
0
51
90
0
ARC
8
0
10
162.425
20
-19.55
40
0.5
50
90
51
180
0
LINE
8
0
10
162.425
20
-38.1
11
180.475
21
-38.1
0
LINE
8
0
10
180.475
20
-19.05
11
162.425
21
-19.05
0
LINE
8
0
10
180.975
20
-37.6
11
180.975
21
-19.55
0
LINE
8
0
10
161.925
20
-19.55
11
161.925
21
-37.6
0
ARC
8
0
10
181.475
20
-37.6
40
0.5
50
180
51
270
0
ARC
8
0
10
199.525
20
-37.6
40
0.5
50
270
51
0
0
ARC
8
0
10
199.525
20
-19.55
40
0.5
50
0
51
90
0
ARC
8
0
10
181.475
20
-19.55
40
0.5
50
90
51
180
0
LINE
8
0
10
181.475
20
-38.1
11
199.525
21
-38.1
0
LINE
8
0
10
199.525
20
-19.05
11
181.475
21
-19.05
0
LINE
8
0
10
200.025
20
-37.6
11
200.025
21
-19.55
0
LINE
8
0
10
180.975
20
-19.55
11
180.975
21
-37.6
0
ARC
8
0
10
200.525
20
-37.6
40
0.5
50
180
51
270
0
ARC
8
0
10
218.575
20
-37.6
40
0.5
50
270
51
0
0
ARC
8
0
10
218.575
20
-19.55
40
0.5
50
0
51
90
0
ARC
8
0
10
200.525
20
-19.55
40
0.5
50
90
51
180
0
LINE
8
0
10
200.525
20
-38.1
11
218.575
21
-38.1
0
LINE
8
0
10
218.575
20
-19.05
11
200.525
21
-19.05
0
LINE
8
0
10
219.075
20
-37.6
11
219.075
21
-19.55
0
LINE
8
0
10
200.025
20
-19.55
11
200.025
21
-37.6
0
ARC
8
0
10
219.575
20
-37.6
40
0.5
50
180
51
270
0
ARC
8
0
10
237.625
20
-37.6
40
0.5
50
270
51
0
0
ARC
8
0
10
237.625
20
-19.55
40
0.5
50
0
51
90
0
ARC
8
0
10
219.575
20
-19.55
40
0.5
50
90
51
180
0
LINE
8
0
10
219.575
20
-38.1
11
237.625
21
-38.1
0
LINE
8
0
10
237.625
20
-19.05
11
219.575
21
-19.05
0
LINE
8
0
10
238.125
20
-37.6
11
238.125
21
-19.55
0
LINE
8
0
10
219.075
20
-19.55
11
219.075
21
-37.6
0
ARC
8
0
10
238.625
20
-37.6
40
0.5
50
180
51
270
0
ARC
8
0
10
256.675
20
-37.6
40
0.5
50
270
51
0
0
ARC
8
0
10
256.675
20
-19.55
40
0.5
50
0
51
90
0
ARC
8
0
10
238.625
20
-19.55
40
0.5
50
90
51
180
0
LINE
8
0
10
238.625
20
-38.1
11
256.675
21
-38.1
0
LINE
8
0
10
256.675
20
-19.05
11
238.625
21
-19.05
0
LINE
8
0
10
257.175
20
-37.6
11
257.175
21
-19.55
0
LINE
8
0
10
238.125
20
-19.55
11
238.125
21
-37.6
0
ARC
8
0
10
257.675
20
-37.6
40
0.5
50
180
51
270
0
ARC
8
0
10
285.25
20
-37.6
40
0.5
50
270
51
0
0
ARC
8
0
10
285.25
20
-19.55
40
0.5
50
0
51
90
0
ARC
8
0
10
257.675
20
-19.55
40
0.5
50
90
51
180
0
LINE
8
0
10
257.675
20
-38.1
11
285.25
21
-38.1
0
LINE
8
0
10
285.25
20
-19.05
11
257.675
21
-19.05
0
LINE
8
0
10
285.75
20
-37.6
11
285.75
21
-19.55
0
LINE
8
0
10
257.175
20
-19.55
11
257.175
21
-37.6
0
ARC
8
0
10
0.5
20
-56.65
40
0.5
50
180
51
270
0
ARC
8
0
10
32.8375
20
-56.65
40
0.5
50
270
51
0
0
ARC
8
0
10
32.8375
20
-38.6
40
0.5
50
0
51
90
0
ARC
8
0
10
0.5
20
-38.6
40
0.5
50
90
51
180
0
LINE
8
0
10
0.5
20
-57.15
11
32.8375
21
-57.15
0
LINE
8
0
10
32.8375
20
-38.1
11
0.5
21
-38.1
0
LINE
8
0
10
33.3375
20
-56.65
11
33.3375
21
-38.6
0
LINE
8
0
10
0
20
-38.6
11
0
21
-56.65
0
ARC
8
0
10
33.8375
20
-56.65
40
0.5
50
180
51
270
0
ARC
8
0
10
51.8875
20
-56.65
40
0.5
50
270
51
0
0
ARC
8
0
10
51.8875
20
-38.6
40
0.5
50
0
51
90
0
ARC
8
0
10
33.8375
20
-38.6
40
0.5
50
90
51
180
0
LINE
8
0
10
33.8375
20
-57.15
11
51.8875
21
-57.15
0
LINE
8
0
10
51.8875
20
-38.1
11
33.8375
21
-38.1
0
LINE
8
0
10
52.3875
20
-56.65
11
52.3875
21
-38.6
0
LINE
8
0
10
33.3375
20
-38.6
11
33.3375
21
-56.65
0
ARC
8
0
10
52.8875
20
-56.65
40
0.5
50
180
51
270
0
ARC
8
0
10
70.9375
20
-56.65
40
0.5
50
270
51
0
0
ARC
8
0
10
70.9375
20
-38.6
40
0.5
50
0
51
90
0
ARC
8
0
10
52.8875
20
-38.6
40
0.5
50
90
51
180
0
LINE
8
0
10
52.8875
20
-57.15
11
70.9375
21
-57.15
0
LINE
8
0
10
70.9375
20
-38.1
11
52.8875
21
-38.1
0
LINE
8
0
10
71.4375
20
-56.65
11
71.4375
21
-38.6
0
LINE
8
0
10
52.3875
20
-38.6
11
52.3875
21
-56.65
0
ARC
8
0
10
71.9375
20
-56.65
40
0.5
50
180
51
270
0
ARC
8
0
10
89.9875
20
-56.65
40
0.5
50
270
51
0
0
ARC
8
0
10
89.9875
20
-38.6
40
0.5
50
0
51
90
0
ARC
8
0
10
71.9375
20
-38.6
40
0.5
50
90
51
180
0
LINE
8
0
10
71.9375
20
-57.15
11
89.9875
21
-57.15
0
LINE
8
0
10
89.9875
20
-38.1
11
71.9375
21
-38.1
0
LINE
8
0
10
90.4875
20
-56.65
11
90.4875
21
-38.6
0
LINE
8
0
10
71.4375
20
-38.6
11
71.4375
21
-56.65
0
ARC
8
0
10
90.9875
20
-56.65
40
0.5
50
180
51
270
0
ARC
8
0
10
109.0375
20
-56.65
40
0.5
50
270
51
0
0
ARC
8
0
10
109.0375
20
-38.6
40
0.5
50
0
51
90
0
ARC
8
0
10
90.9875
20
-38.6
40
0.5
50
90
51
180
0
LINE
8
0
10
90.9875
20
-57.15
11
109.0375
21
-57.15
0
LINE
8
0
10
109.0375
20
-38.1
11
90.9875
21
-38.1
0
LINE
8
0
10
109.5375
20
-56.65
11
109.5375
21
-38.6
0
LINE
8
0
10
90.4875
20
-38.6
11
90.4875
21
-56.65
0
ARC
8
0
10
110.0375
20
-56.65
40
0.5
50
180
51
270
0
ARC
8
0
10
128.0875
20
-56.65
40
0.5
50
270
51
0
0
ARC
8
0
10
128.0875
20
-38.6
40
0.5
50
0
51
90
0
ARC
8
0
10
110.0375
20
-38.6
40
0.5
50
90
51
180
0
LINE
8
0
10
110.0375
20
-57.15
11
128.0875
21
-57.15
0
LINE
8
0
10
128.0875
20
-38.1
11
110.0375
21
-38.1
0
LINE
8
0
10
128.5875
20
-56.65
11
128.5875
21
-38.6
0
LINE
8
0
10
109.5375
20
-38.6
11
109.5375
21
-56.65
0
ARC
8
0
10
129.0875
20
-56.65
40
0.5
50
180
51
270
0
ARC
8
0
10
147.1375
20
-56.65
40
0.5
50
270
51
0
0
ARC
8
0
10
147.1375
20
-38.6
40
0.5
50
0
51
90
0
ARC
8
0
10
129.0875
20
-38.6
40
0.5
50
90
51
180
0
LINE
8
0
10
129.0875
20
-57.15
11
147.1375
21
-57.15
0
LINE
8
0
10
147.1375
20
-38.1
11
129.0875
21
-38.1
0
LINE
8
0
10
147.6375
20
-56.65
11
147.6375
21
-38.6
0
LINE
8
0
10
128.5875
20
-38.6
11
128.5875
21
-56.65
0
ARC
8
0
10
148.1375
20
-56.65
40
0.5
50
180
51
270
0
ARC
8
0
10
166.1875
20
-56.65
40
0.5
50
270
51
0
0
ARC
8
0
10
166.1875
20
-38.6
40
0.5
50
0
51
90
0
ARC
8
0
10
148.1375
20
-38.6
40
0.5
50
90
51
180
0
LINE
8
0
10
148.1375
20
-57.15
11
166.1875
21
-57.15
0
LINE
8
0
10
166.1875
20
-38.1
11
148.1375
21
-38.1
0
LINE
8
0
10
166.6875
20
-56.65
11
166.6875
21
-38.6
0
LINE
8
0
10
147.6375
20
-38.6
11
147.6375
21
-56.65
0
ARC
8
0
10
167.1875
20
-56.65
40
0.5
50
180
51
270
0
ARC
8
0
10
185.2375
20
-56.65
40
0.5
50
270
51
0
0
ARC
8
0
10
185.2375
20
-38.6
40
0.5
50
0
51
90
0
ARC
8
0
10
167.1875
20
-38.6
40
0.5
50
90
51
180
0
LINE
8
0
10
167.1875
20
-57.15
11
185.2375
21
-57.15
0
LINE
8
0
10
185.2375
20
-38.1
11
167.1875
21
-38.1
0
LINE
8
0
10
185.7375
20
-56.65
11
185.7375
21
-38.6
0
LINE
8
0
10
166.6875
20
-38.6
11
166.6875
21
-56.65
0
ARC
8
0
10
186.2375
20
-56.65
40
0.5
50
180
51
270
0
ARC
8
0
10
204.2875
20
-56.65
40
0.5
50
270
51
0
0
ARC
8
0
10
204.2875
20
-38.6
40
0.5
50
0
51
90
0
ARC
8
0
10
186.2375
20
-38.6
40
0.5
50
90
51
180
0
LINE
8
0
10
186.2375
20
-57.15
11
204.2875
21
-57.15
0
LINE
8
0
10
204.2875
20
-38.1
11
186.2375
21
-38.1
0
LINE
8
0
10
204.7875
20
-56.65
11
204.7875
21
-38.6
0
LINE
8
0
10
185.7375
20
-38.6
11
185.7375
21
-56.65
0
ARC
8
0
10
205.2875
20
-56.65
40
0.5
50
180
51
270
0
ARC
8
0
10
223.3375
20
-56.65
40
0.5
50
270
51
0
0
ARC
8
0
10
223.3375
20
-38.6
40
0.5
50
0
51
90
0
ARC
8
0
10
205.2875
20
-38.6
40
0.5
50
90
51
180
0
LINE
8
0
10
205.2875
20
-57.15
11
223.3375
21
-57.15
0
LINE
8
0
10
223.3375
20
-38.1
11
205.2875
21
-38.1
0
LINE
8
0
10
223.8375
20
-56.65
11
223.8375
21
-38.6
0
LINE
8
0
10
204.7875
20
-38.6
11
204.7875
21
-56.65
0
ARC
8
0
10
224.3375
20
-56.65
40
0.5
50
180
51
270
0
ARC
8
0
10
242.3875
20
-56.65
40
0.5
50
270
51
0
0
ARC
8
0
10
242.3875
20
-38.6
40
0.5
50
0
51
90
0
ARC
8
0
10
224.3375
20
-38.6
40
0.5
50
90
51
180
0
LINE
8
0
10
224.3375
20
-57.15
11
242.3875
21
-57.15
0
LINE
8
0
10
242.3875
20
-38.1
11
224.3375
21
-38.1
0
LINE
8
0
10
242.8875
20
-56.65
11
242.8875
21
-38.6
0
LINE
8
0
10
223.8375
20
-38.6
11
223.8375
21
-56.65
0
ARC
8
0
10
243.3875
20
-56.65
40
0.5
50
180
51
270
0
ARC
8
0
10
285.25
20
-56.65
40
0.5
50
270
51
0
0
ARC
8
0
10
285.25
20
-38.6
40
0.5
50
0
51
90
0
ARC
8
0
10
243.3875
20
-38.6
40
0.5
50
90
51
180
0
LINE
8
0
10
243.3875
20
-57.15
11
285.25
21
-57.15
0
LINE
8
0
10
285.25
20
-38.1
11
243.3875
21
-38.1
0
LINE
8
0
10
285.75
20
-56.65
11
285.75
21
-38.6
0
LINE
8
0
10
242.8875
20
-38.6
11
242.8875
21
-56.65
0
ARC
8
0
10
0.5
20
-75.7
40
0.5
50
180
51
270
0
ARC
8
0
10
42.3625
20
-75.7
40
0.5
50
270
51
0
0
ARC
8
0
10
42.3625
20
-57.65
40
0.5
50
0
51
90
0
ARC
8
0
10
0.5
20
-57.65
40
0.5
50
90
51
180
0
LINE
8
0
10
0.5
20
-76.2
11
42.3625
21
-76.2
0
LINE
8
0
10
42.3625
20
-57.15
11
0.5
21
-57.15
0
LINE
8
0
10
42.8625
20
-75.7
11
42.8625
21
-57.65
0
LINE
8
0
10
0
20
-57.65
11
0
21
-75.7
0
ARC
8
0
10
43.3625
20
-75.7
40
0.5
50
180
51
270
0
ARC
8
0
10
61.4125
20
-75.7
40
0.5
50
270
51
0
0
ARC
8
0
10
61.4125
20
-57.65
40
0.5
50
0
51
90
0
ARC
8
0
10
43.3625
20
-57.65
40
0.5
50
90
51
180
0
LINE
8
0
10
43.3625
20
-76.2
11
61.4125
21
-76.2
0
LINE
8
0
10
61.4125
20
-57.15
11
43.3625
21
-57.15
0
LINE
8
0
10
61.9125
20
-75.7
11
61.9125
21
-57.65
0
LINE
8
0
10
42.8625
20
-57.65
11
42.8625
21
-75.7
0
ARC
8
0
10
62.4125
20
-75.7
40
0.5
50
180
51
270
0
ARC
8
0
10
80.4625
20
-75.7
40
0.5
50
270
51
0
0
ARC
8
0
10
80.4625
20
-57.65
40
0.5
50
0
51
90
0
ARC
8
0
10
62.4125
20
-57.65
40
0.5
50
90
51
180
0
LINE
8
0
10
62.4125
20
-76.2
11
80.4625
21
-76.2
0
LINE
8
0
10
80.4625
20
-57.15
11
62.4125
21
-57.15
0
LINE
8
0
10
80.9625
20
-75.7
11
80.9625
21
-57.65
0
LINE
8
0
10
61.9125
20
-57.65
11
61.9125
21
-75.7
0
ARC
8
0
10
81.4625
20
-75.7
40
0.5
50
180
51
270
0
ARC
8
0
10
99.5125
20
-75.7
40
0.5
50
270
51
0
0
ARC
8
0
10
99.5125
20
-57.65
40
0.5
50
0
51
90
0
ARC
8
0
10
81.4625
20
-57.65
40
0.5
50
90
51
180
0
LINE
8
0
10
81.4625
20
-76.2
11
99.5125
21
-76.2
0
LINE
8
0
10
99.5125
20
-57.15
11
81.4625
21
-57.15
0
LINE
8
0
10
100.0125
20
-75.7
11
100.0125
21
-57.65
0
LINE
8
0
10
80.9625
20
-57.65
11
80.9625
21
-75.7
0
ARC
8
0
10
100.5125
20
-75.7
40
0.5
50
180
51
270
0
ARC
8
0
10
118.5625
20
-75.7
40
0.5
50
270
51
0
0
ARC
8
0
10
118.5625
20
-57.65
40
0.5
50
0
51
90
0
ARC
8
0
10
100.5125
20
-57.65
40
0.5
50
90
51
180
0
LINE
8
0
10
100.5125
20
-76.2
11
118.5625
21
-76.2
0
LINE
8
0
10
118.5625
20
-57.15
11
100.5125
21
-57.15
0
LINE
8
0
10
119.0625
20
-75.7
11
119.0625
21
-57.65
0
LINE
8
0
10
100.0125
20
-57.65
11
100.0125
21
-75.7
0
ARC
8
0
10
119.5625
20
-75.7
40
0.5
50
180
51
270
0
ARC
8
0
10
137.6125
20
-75.7
40
0.5
50
270
51
0
0
ARC
8
0
10
137.6125
20
-57.65
40
0.5
50
0
51
90
0
ARC
8
0
10
119.5625
20
-57.65
40
0.5
50
90
51
180
0
LINE
8
0
10
119.5625
20
-76.2
11
137.6125
21
-76.2
0
LINE
8
0
10
137.6125
20
-57.15
11
119.5625
21
-57.15
0
LINE
8
0
10
138.1125
20
-75.7
11
138.1125
21
-57.65
0
LINE
8
0
10
119.0625
20
-57.65
11
119.0625
21
-75.7
0
ARC
8
0
10
138.6125
20
-75.7
40
0.5
50
180
51
270
0
ARC
8
0
10
156.6625
20
-75.7
40
0.5
50
270
51
0
0
ARC
8
0
10
156.6625
20
-57.65
40
0.5
50
0
51
90
0
ARC
8
0
10
138.6125
20
-57.65
40
0.5
50
90
51
180
0
LINE
8
0
10
138.6125
20
-76.2
11
156.6625
21
-76.2
0
LINE
8
0
10
156.6625
20
-57.15
11
138.6125
21
-57.15
0
LINE
8
0
10
157.1625
20
-75.7
11
157.1625
21
-57.65
0
LINE
8
0
10
138.1125
20
-57.65
11
138.1125
21
-75.7
0
ARC
8
0
10
157.6625
20
-75.7
40
0.5
50
180
51
270
0
ARC
8
0
10
175.7125
20
-75.7
40
0.5
50
270
51
0
0
ARC
8
0
10
175.7125
20
-57.65
40
0.5
50
0
51
90
0
ARC
8
0
10
157.6625
20
-57.65
40
0.5
50
90
51
180
0
LINE
8
0
10
157.6625
20
-76.2
11
175.7125
21
-76.2
0
LINE
8
0
10
175.7125
20
-57.15
11
157.6625
21
-57.15
0
LINE
8
0
10
176.2125
20
-75.7
11
176.2125
21
-57.65
0
LINE
8
0
10
157.1625
20
-57.65
11
157.1625
21
-75.7
0
ARC
8
0
10
176.7125
20
-75.7
40
0.5
50
180
51
270
0
ARC
8
0
10
194.7625
20
-75.7
40
0.5
50
270
51
0
0
ARC
8
0
10
194.7625
20
-57.65
40
0.5
50
0
51
90
0
ARC
8
0
10
176.7125
20
-57.65
40
0.5
50
90
51
180
0
LINE
8
0
10
176.7125
20
-76.2
11
194.7625
21
-76.2
0
LINE
8
0
10
194.7625
20
-57.15
11
176.7125
21
-57.15
0
LINE
8
0
10
195.2625
20
-75.7
11
195.2625
21
-57.65
0
LINE
8
0
10
176.2125
20
-57.65
11
176.2125
21
-75.7
0
ARC
8
0
10
195.7625
20
-75.7
40
0.5
50
180
51
270
0
ARC
8
0
10
213.8125
20
-75.7
40
0.5
50
270
51
0
0
ARC
8
0
10
213.8125
20
-57.65
40
0.5
50
0
51
90
0
ARC
8
0
10
195.7625
20
-57.65
40
0.5
50
90
51
180
0
LINE
8
0
10
195.7625
20
-76.2
11
213.8125
21
-76.2
0
LINE
8
0
10
213.8125
20
-57.15
11
195.7625
21
-57.15
0
LINE
8
0
10
214.3125
20
-75.7
11
214.3125
21
-57.65
0
LINE
8
0
10
195.2625
20
-57.65
11
195.2625
21
-75.7
0
ARC
8
0
10
214.8125
20
-75.7
40
0.5
50
180
51
270
0
ARC
8
0
10
232.8625
20
-75.7
40
0.5
50
270
51
0
0
ARC
8
0
10
232.8625
20
-57.65
40
0.5
50
0
51
90
0
ARC
8
0
10
214.8125
20
-57.65
40
0.5
50
90
51
180
0
LINE
8
0
10
214.8125
20
-76.2
11
232.8625
21
-76.2
0
LINE
8
0
10
232.8625
20
-57.15
11
214.8125
21
-57.15
0
LINE
8
0
10
233.3625
20
-75.7
11
233.3625
21
-57.65
0
LINE
8
0
10
214.3125
20
-57.65
11
214.3125
21
-75.7
0
ARC
8
0
10
233.8625
20
-75.7
40
0.5
50
180
51
270
0
ARC
8
0
10
266.2
20
-75.7
40
0.5
50
270
51
0
0
ARC
8
0
10
266.2
20
-57.65
40
0.5
50
0
51
90
0
ARC
8
0
10
233.8625
20
-57.65
40
0.5
50
90
51
180
0
LINE
8
0
10
233.8625
20
-76.2
11
266.2
21
-76.2
0
LINE
8
0
10
266.2
20
-57.15
11
233.8625
21
-57.15
0
LINE
8
0
10
266.7
20
-75.7
11
266.7
21
-57.65
0
LINE
8
0
10
233.3625
20
-57.65
11
233.3625
21
-75.7
0
ARC
8
0
10
267.2
20
-75.7
40
0.5
50
180
51
270
0
ARC
8
0
10
285.25
20
-75.7
40
0.5
50
270
51
0
0
ARC
8
0
10
285.25
20
-57.65
40
0.5
50
0
51
90
0
ARC
8
0
10
267.2
20
-57.65
40
0.5
50
90
51
180
0
LINE
8
0
10
267.2
20
-76.2
11
285.25
21
-76.2
0
LINE
8
0
10
285.25
20
-57.15
11
267.2
21
-57.15
0
LINE
8
0
10
285.75
20
-75.7
11
285.75
21
-57.65
0
LINE
8
0
10
266.7
20
-57.65
11
266.7
21
-75.7
0
ARC
8
0
10
29.075
20
-94.75
40
0.5
50
180
51
270
0
ARC
8
0
10
47.125
20
-94.75
40
0.5
50
270
51
0
0
ARC
8
0
10
47.125
20
-76.7
40
0.5
50
0
51
90
0
ARC
8
0
10
29.075
20
-76.7
40
0.5
50
90
51
180
0
LINE
8
0
10
29.075
20
-95.25
11
47.125
21
-95.25
0
LINE
8
0
10
47.125
20
-76.2
11
29.075
21
-76.2
0
LINE
8
0
10
47.625
20
-94.75
11
47.625
21
-76.7
0
LINE
8
0
10
28.575
20
-76.7
11
28.575
21
-94.75
0
ARC
8
0
10
48.125
20
-94.75
40
0.5
50
180
51
270
0
ARC
8
0
10
75.7
20
-94.75
40
0.5
50
270
51
0
0
ARC
8
0
10
75.7
20
-76.7
40
0.5
50
0
51
90
0
ARC
8
0
10
48.125
20
-76.7
40
0.5
50
90
51
180
0
LINE
8
0
10
48.125
20
-95.25
11
75.7
21
-95.25
0
LINE
8
0
10
75.7
20
-76.2
11
48.125
21
-76.2
0
LINE
8
0
10
76.2
20
-94.75
11
76.2
21
-76.7
0
LINE
8
0
10
47.625
20
-76.7
11
47.625
21
-94.75
0
ARC
8
0
10
76.7
20
-94.75
40
0.5
50
180
51
270
0
ARC
8
0
10
132.85
20
-94.75
40
0.5
50
270
51
0
0
ARC
8
0
10
132.85
20
-76.7
40
0.5
50
0
51
90
0
ARC
8
0
10
76.7
20
-76.7
40
0.5
50
90
51
180
0
LINE
8
0
10
76.7
20
-95.25
11
132.85
21
-95.25
0
LINE
8
0
10
132.85
20
-76.2
11
76.7
21
-76.2
0
LINE
8
0
10
133.35
20
-94.75
11
133.35
21
-76.7
0
LINE
8
0
10
76.2
20
-76.7
11
76.2
21
-94.75
0
ARC
8
0
10
133.85
20
-94.75
40
0.5
50
180
51
270
0
ARC
8
0
10
190
20
-94.75
40
0.5
50
270
51
0
0
ARC
8
0
10
190
20
-76.7
40
0.5
50
0
51
90
0
ARC
8
0
10
133.85
20
-76.7
40
0.5
50
90
51
180
0
LINE
8
0
10
133.85
20
-95.25
11
190
21
-95.25
0
LINE
8
0
10
190
20
-76.2
11
133.85
21
-76.2
0
LINE
8
0
10
190.5
20
-94.75
11
190.5
21
-76.7
0
LINE
8
0
10
133.35
20
-76.7
11
133.35
21
-94.75
0
ARC
8
0
10
191
20
-94.75
40
0.5
50
180
51
270
0
ARC
8
0
10
218.575
20
-94.75
40
0.5
50
270
51
0
0
ARC
8
0
10
218.575
20
-76.7
40
0.5
50
0
51
90
0
ARC
8
0
10
191
20
-76.7
40
0.5
50
90
51
180
0
LINE
8
0
10
191
20
-95.25
11
218.575
21
-95.25
0
LINE
8
0
10
218.575
20
-76.2
11
191
21
-76.2
0
LINE
8
0
10
219.075
20
-94.75
11
219.075
21
-76.7
0
LINE
8
0
10
190.5
20
-76.7
11
190.5
21
-94.75
0
ARC
8
0
10
219.575
20
-94.75
40
0.5
50
180
51
270
0
ARC
8
0
10
237.625
20
-94.75
40
0.5
50
270
51
0
0
ARC
8
0
10
237.625
20
-76.7
40
0.5
50
0
51
90
0
ARC
8
0
10
219.575
20
-76.7
40
0.5
50
90
51
180
0
LINE
8
0
10
219.575
20
-95.25
11
237.625
21
-95.25
0
LINE
8
0
10
237.625
20
-76.2
11
219.575
21
-76.2
0
LINE
8
0
10
238.125
20
-94.75
11
238.125
21
-76.7
0
LINE
8
0
10
219.075
20
-76.7
11
219.075
21
-94.75
0
ENDSEC
0
EOF