0
SECTION
2
HEADER
9
$INSUNITS
70
4
9
$ACADVER
1
AC1014
9
$HANDSEED
5
FFFF
0
ENDSEC
0
SECTION
2
TABLES
0
TABLE
2
VPORT
5
8
100
AcDbSymbolTable
0
ENDTAB
0
TABLE
2
LTYPE
5
5
100
AcDbSymbolTable
0
LTYPE
5
14
100
AcDbSymbolTableRecord
100
AcDbLinetypeTableRecord
2
BYBLOCK
70
0
0
LTYPE
5
15
100
AcDbSymbolTableRecord
100
AcDbLinetypeTableRecord
2
BYLAYER
70
0
0
ENDTAB
0
TABLE
2
LAYER
5
2
100
AcDbSymbolTable
70
2
0
LAYER
5
50
100
AcDbSymbolTableRecord
100
AcDbLayerTableRecord
2
0
70
0
6
CONTINUOUS
0
ENDTAB
0
TABLE
2
STYLE
5
3
100
AcDbSymbolTable
70
1
0
STYLE
5
11
100
AcDbSymbolTableRecord
100
AcDbTextStyleTableRecord
2
STANDARD
70
0
0
ENDTAB
0
TABLE
2
VIEW
5
6
100
AcDbSymbolTable
70
0
0
ENDTAB
0
TABLE
2
UCS
5
7
100
AcDbSymbolTable
70
0
0
ENDTAB
0
TABLE
2
APPID
5
9
100
AcDbSymbolTable
70
2
0
APPID
5
12
100
AcDbSymbolTableRecord
100
AcDbRegAppTableRecord
2
ACAD
70
0
0
ENDTAB
0
TABLE
2
DIMSTYLE
5
A
100
AcDbSymbolTable
70
1
0
ENDTAB
0
TABLE
2
BLOCK_RECORD
5
1
100
AcDbSymbolTable
70
1
0
BLOCK_RECORD
5
1F
100
AcDbSymbolTableRecord
100
AcDbBlockTableRecord
2
*MODEL_SPACE
0
BLOCK_RECORD
5
1B
100
AcDbSymbolTableRecord
100
AcDbBlockTableRecord
2
*PAPER_SPACE
0
ENDTAB
0
ENDSEC
0
SECTION
2
BLOCKS
0
BLOCK
5
20
100
AcDbEntity
100
AcDbBlockBegin
2
*MODEL_SPACE
0
ENDBLK
5
21
100
AcDbEntity
100
AcDbBlockEnd
0
BLOCK
5
1C
100
AcDbEntity
100
AcDbBlockBegin
2
*PAPER_SPACE
0
ENDBLK
5
1D
100
AcDbEntity
100
AcDbBlockEnd
0
ENDSEC
0
SECTION
2
ENTITIES
0
LINE
5
100
100
AcDbEntity
8
0
100
AcDbLine
10
1.1999999999999997
20
0
30
0
11
284.54999361298979
21
0
31
0
0
LINE
5
101
100
AcDbEntity
8
0
100
AcDbLine
10
29.775001357239674
20
-95.250004524132237
30
0
11
236.92502369755368
21
-95.250004524132237
31
0
0
LINE
5
102
100
AcDbEntity
8
0
100
AcDbLine
10
238.12502369755367
20
-94.050004524132248
30
0
11
238.12502369755367
21
-76.199998296797276
31
0
0
LINE
5
103
100
AcDbEntity
8
0
100
AcDbLine
10
28.575001357239671
20
-76.199998296797276
30
0
11
28.575001357239657
21
-94.050004524132248
31
0
0
LINE
5
104
100
AcDbEntity
8
0
100
AcDbLine
10
1.1999999999999997
20
-76.199998296797276
30
0
11
28.575001357239671
21
-76.199998296797276
31
0
0
LINE
5
105
100
AcDbEntity
8
0
100
AcDbLine
10
238.12502369755367
20
-76.199998296797276
30
0
11
284.54999361298979
21
-76.199998296797276
31
0
0
LWPOLYLINE
5
106
100
AcDbEntity
8
0
100
AcDbPolyline
90
8
70
1
43
0.0
10
35.862499999999997
20
-41.125
10
35.862500000000004
20
-54.125000000000007
42
0.41421356237309503
10
36.362499999999997
20
-54.625
10
49.362500000000004
20
-54.625
42
0.41421356237309503
10
49.862499999999997
20
-54.125000000000007
10
49.862499999999997
20
-41.125
42
0.41421356237309503
10
49.362500000000004
20
-40.625
10
36.362499999999997
20
-40.625
42
0.41421356237309503
0
LWPOLYLINE
5
107
100
AcDbEntity
8
0
100
AcDbPolyline
90
8
70
1
43
0.0
10
55.412500000000009
20
-40.625
42
0.41421356237309503
10
54.912500000000009
20
-41.125
10
54.912500000000009
20
-54.125000000000007
42
0.41421356237309503
10
55.412500000000009
20
-54.625
10
68.412499999999994
20
-54.625
42
0.41421356237309503
10
68.912499999999994
20
-54.125000000000007
10
68.912499999999994
20
-41.125
42
0.41421356237309503
10
68.412499999999994
20
-40.625
0
LWPOLYLINE
5
108
100
AcDbEntity
8
0
100
AcDbPolyline
90
8
70
1
43
0.0
10
23.168749999999999
20
-40.625
10
10.168749999999999
20
-40.625
42
0.41421356237309503
10
9.6687499999999993
20
-41.125
10
9.6687499999999993
20
-54.125000000000007
42
0.41421356237309503
10
10.168749999999999
20
-54.625
10
23.168749999999999
20
-54.625
42
0.41421356237309503
10
23.668749999999999
20
-54.125000000000007
10
23.668749999999999
20
-41.125
42
0.41421356237309503
0
LWPOLYLINE
5
109
100
AcDbEntity
8
0
100
AcDbPolyline
90
8
70
1
43
0.0
10
254.65000000000003
20
-22.074999999999999
42
0.41421356237309503
10
254.15000000000003
20
-21.575000000000003
10
241.15000000000003
20
-21.575000000000003
42
0.41421356237309503
10
240.65000000000001
20
-22.074999999999999
10
240.65000000000001
20
-35.075000000000003
42
0.41421356237309503
10
241.15000000000003
20
-35.575000000000003
10
254.15000000000003
20
-35.575000000000003
42
0.41421356237309503
10
254.65000000000003
20
-35.075000000000003
0
LWPOLYLINE
5
110
100
AcDbEntity
8
0
100
AcDbPolyline
90
8
70
1
43
0.0
10
278.46250000000003
20
-22.074999999999999
42
0.41421356237309503
10
277.96249999999998
20
-21.575000000000003
10
264.96249999999998
20
-21.575000000000003
42
0.41421356237309503
10
264.46249999999998
20
-22.074999999999999
10
264.46249999999998
20
-35.075000000000003
42
0.41421356237309503
10
264.96249999999998
20
-35.575000000000003
10
277.96249999999998
20
-35.575000000000003
42
0.41421356237309503
10
278.46249999999998
20
-35.075000000000003
0
LWPOLYLINE
5
111
100
AcDbEntity
8
0
100
AcDbPolyline
90
8
70
1
43
0.0
10
106.51250000000002
20
-54.625
42
0.41421356237309503
10
107.01250000000002
20
-54.125000000000007
10
107.01250000000002
20
-41.125
42
0.41421356237309503
10
106.51250000000002
20
-40.625
10
93.512500000000003
20
-40.625
42
0.41421356237309503
10
93.012500000000017
20
-41.125
10
93.012499999999989
20
-54.125000000000007
42
0.41421356237309503
10
93.512500000000003
20
-54.625
0
LWPOLYLINE
5
112
100
AcDbEntity
8
0
100
AcDbPolyline
90
8
70
1
43
0.0
10
74.462500000000006
20
-40.625
42
0.41421356237309503
10
73.962500000000006
20
-41.125
10
73.962500000000006
20
-54.125000000000007
42
0.41421356237309503
10
74.462500000000006
20
-54.625
10
87.46250000000002
20
-54.625
42
0.41421356237309503
10
87.962500000000006
20
-54.125000000000007
10
87.96250000000002
20
-41.125
42
0.41421356237309503
10
87.46250000000002
20
-40.625
0
LWPOLYLINE
5
113
100
AcDbEntity
8
0
100
AcDbPolyline
90
14
70
1
43
0.0
10
254.96875000000003
20
-43.825000000000003
10
254.11875000000003
20
-43.825000000000003
10
254.11875000000003
20
-39.674999999999997
42
0.41421356237309503
10
253.61875000000001
20
-39.174999999999997
10
251.01875000000004
20
-39.174999999999997
42
0.41421356237309503
10
250.51875000000001
20
-39.674999999999997
10
250.51875000000001
20
-43.825000000000003
10
249.66875000000002
20
-43.825000000000003
42
0.41421356237309503
10
249.16875000000002
20
-44.325000000000003
10
249.16875000000002
20
-50.174999999999997
42
0.41421356237309503
10
249.66875000000002
20
-50.674999999999997
10
254.96875000000003
20
-50.674999999999997
42
0.41421356237309503
10
255.46875000000003
20
-50.174999999999997
10
255.46875000000003
20
-44.325000000000003
42
0.41421356237309503
0
LWPOLYLINE
5
114
100
AcDbEntity
8
0
100
AcDbPolyline
90
8
70
1
43
0.0
10
112.56250000000001
20
-54.625
10
125.5625
20
-54.625
42
0.41421356237309503
10
126.06250000000001
20
-54.125000000000007
10
126.06250000000001
20
-41.125
42
0.41421356237309503
10
125.5625
20
-40.625
10
112.56250000000001
20
-40.625
42
0.41421356237309503
10
112.0625
20
-41.125
10
112.0625
20
-54.125000000000007
42
0.41421356237309503
0
LWPOLYLINE
5
115
100
AcDbEntity
8
0
100
AcDbPolyline
90
8
70
1
43
0.0
10
144.61250000000001
20
-40.625
10
131.61250000000001
20
-40.625
42
0.41421356237309503
10
131.11250000000001
20
-41.125
10
131.11250000000001
20
-54.125000000000007
42
0.41421356237309503
10
131.61250000000001
20
-54.625
10
144.61250000000001
20
-54.625
42
0.41421356237309503
10
145.11250000000001
20
-54.125000000000007
10
145.11250000000001
20
-41.125
42
0.41421356237309503
0
LWPOLYLINE
5
116
100
AcDbEntity
8
0
100
AcDbPolyline
90
8
70
1
43
0.0
10
201.76249999999999
20
-40.625
10
188.76249999999999
20
-40.625
42
0.41421356237309503
10
188.26249999999999
20
-41.125
10
188.26249999999999
20
-54.125000000000007
42
0.41421356237309503
10
188.76249999999999
20
-54.625
10
201.76249999999999
20
-54.625
42
0.41421356237309503
10
202.26249999999999
20
-54.125000000000007
10
202.26249999999999
20
-41.125
42
0.41421356237309503
0
LWPOLYLINE
5
117
100
AcDbEntity
8
0
100
AcDbPolyline
90
8
70
1
43
0.0
10
169.71250000000001
20
-54.625
10
182.71250000000003
20
-54.625
42
0.41421356237309503
10
183.21250000000003
20
-54.125000000000007
10
183.21250000000003
20
-41.125
42
0.41421356237309503
10
182.71250000000003
20
-40.625
10
169.71250000000001
20
-40.625
42
0.41421356237309503
10
169.21250000000001
20
-41.125
10
169.21250000000001
20
-54.125000000000007
42
0.41421356237309503
0
LWPOLYLINE
5
118
100
AcDbEntity
8
0
100
AcDbPolyline
90
8
70
1
43
0.0
10
220.8125
20
-54.625
42
0.41421356237309503
10
221.3125
20
-54.125000000000007
10
221.3125
20
-41.125
42
0.41421356237309503
10
220.8125
20
-40.625
10
207.8125
20
-40.625
42
0.41421356237309503
10
207.31250000000003
20
-41.125
10
207.3125
20
-54.125000000000007
42
0.41421356237309503
10
207.8125
20
-54.625
0
LWPOLYLINE
5
119
100
AcDbEntity
8
0
100
AcDbPolyline
90
8
70
1
43
0.0
10
271.31875000000002
20
-41.125
42
0.41421356237309503
10
270.81875000000002
20
-40.625
10
257.81875000000002
20
-40.625
42
0.41421356237309503
10
257.31875000000002
20
-41.125
10
257.31875000000002
20
-54.125000000000007
42
0.41421356237309503
10
257.81875000000002
20
-54.625
10
270.81875000000002
20
-54.625
42
0.41421356237309503
10
271.31875000000002
20
-54.125000000000007
0
LWPOLYLINE
5
120
100
AcDbEntity
8
0
100
AcDbPolyline
90
8
70
1
43
0.0
10
239.86250000000001
20
-54.625
42
0.41421356237309503
10
240.36250000000001
20
-54.125000000000007
10
240.36250000000001
20
-41.125
42
0.41421356237309503
10
239.86250000000001
20
-40.625
10
226.86250000000001
20
-40.625
42
0.41421356237309503
10
226.36250000000001
20
-41.125
10
226.36250000000001
20
-54.125000000000007
42
0.41421356237309503
10
226.86250000000001
20
-54.625
0
LWPOLYLINE
5
121
100
AcDbEntity
8
0
100
AcDbPolyline
90
8
70
1
43
0.0
10
163.66250000000002
20
-54.625
42
0.41421356237309503
10
164.16250000000002
20
-54.125000000000007
10
164.16250000000002
20
-41.125
42
0.41421356237309503
10
163.66250000000002
20
-40.625
10
150.66249999999999
20
-40.625
42
0.41421356237309503
10
150.16249999999999
20
-41.125
10
150.16249999999999
20
-54.125000000000007
42
0.41421356237309503
10
150.66249999999999
20
-54.625
0
LWPOLYLINE
5
122
100
AcDbEntity
8
0
100
AcDbPolyline
90
14
70
1
43
0.0
10
274.51875000000001
20
-39.674999999999997
10
274.51875000000001
20
-43.825000000000003
10
273.66874999999999
20
-43.825000000000003
42
0.41421356237309503
10
273.16874999999999
20
-44.325000000000003
10
273.16874999999999
20
-50.174999999999997
42
0.41421356237309503
10
273.66874999999999
20
-50.674999999999997
10
278.96875
20
-50.674999999999997
42
0.41421356237309503
10
279.46875
20
-50.174999999999997
10
279.46875
20
-44.325000000000003
42
0.41421356237309503
10
278.96875
20
-43.825000000000003
10
278.11874999999998
20
-43.825000000000003
10
278.11874999999998
20
-39.674999999999997
42
0.41421356237309503
10
277.61874999999998
20
-39.174999999999997
10
275.01875000000001
20
-39.174999999999997
42
0.41421356237309503
0
LWPOLYLINE
5
123
100
AcDbEntity
8
0
100
AcDbPolyline
90
14
70
1
43
0.0
10
30.78125
20
-62.875000000000007
42
0.41421356237309503
10
30.28125
20
-63.375
10
30.28125
20
-69.224999999999994
42
0.41421356237309503
10
30.78125
20
-69.724999999999994
10
36.081249999999997
20
-69.724999999999994
42
0.41421356237309503
10
36.581249999999997
20
-69.224999999999994
10
36.581249999999997
20
-63.375
42
0.41421356237309503
10
36.081249999999997
20
-62.875000000000007
10
35.231250000000003
20
-62.875000000000007
10
35.231250000000003
20
-58.725000000000009
42
0.41421356237309503
10
34.731250000000003
20
-58.225000000000009
10
32.131250000000001
20
-58.225000000000009
42
0.41421356237309503
10
31.631250000000005
20
-58.725000000000009
10
31.631250000000005
20
-62.875000000000007
0
LWPOLYLINE
5
124
100
AcDbEntity
8
0
100
AcDbPolyline
90
14
70
1
43
0.0
10
12.081250000000001
20
-69.724999999999994
42
0.41421356237309503
10
12.581250000000001
20
-69.224999999999994
10
12.581250000000001
20
-63.375
42
0.41421356237309503
10
12.081250000000001
20
-62.875000000000007
10
11.231249999999999
20
-62.875000000000007
10
11.231249999999999
20
-58.725000000000009
42
0.41421356237309503
10
10.731249999999999
20
-58.225000000000009
10
8.1312499999999996
20
-58.225000000000009
42
0.41421356237309503
10
7.6312499999999996
20
-58.725000000000009
10
7.6312500000000005
20
-62.875000000000007
10
6.7812500000000009
20
-62.875000000000007
42
0.41421356237309503
10
6.28125
20
-63.375
10
6.28125
20
-69.224999999999994
42
0.41421356237309503
10
6.7812500000000009
20
-69.724999999999994
0
LWPOLYLINE
5
125
100
AcDbEntity
8
0
100
AcDbPolyline
90
8
70
1
43
0.0
10
14.93125
20
-73.674999999999997
10
27.931249999999999
20
-73.674999999999997
42
0.41421356237309503
10
28.431249999999999
20
-73.174999999999997
10
28.431249999999999
20
-60.174999999999997
42
0.41421356237309503
10
27.931249999999999
20
-59.675000000000004
10
14.93125
20
-59.675000000000004
42
0.41421356237309503
10
14.431250000000002
20
-60.174999999999997
10
14.43125
20
-73.174999999999997
42
0.41421356237309503
0
LWPOLYLINE
5
126
100
AcDbEntity
8
0
100
AcDbPolyline
90
8
70
1
43
0.0
10
45.887500000000003
20
-73.674999999999997
10
58.88750000000001
20
-73.674999999999997
42
0.41421356237309503
10
59.387500000000003
20
-73.174999999999997
10
59.387500000000003
20
-60.174999999999997
42
0.41421356237309503
10
58.88750000000001
20
-59.675000000000004
10
45.887500000000003
20
-59.675000000000004
42
0.41421356237309503
10
45.387500000000003
20
-60.174999999999997
10
45.387500000000003
20
-73.174999999999997
42
0.41421356237309503
0
LWPOLYLINE
5
127
100
AcDbEntity
8
0
100
AcDbPolyline
90
8
70
1
43
0.0
10
135.58750000000001
20
-73.174999999999997
10
135.58750000000001
20
-60.174999999999997
42
0.41421356237309503
10
135.08750000000001
20
-59.675000000000004
10
122.08750000000002
20
-59.675000000000004
42
0.41421356237309503
10
121.58750000000001
20
-60.174999999999997
10
121.58750000000001
20
-73.174999999999997
42
0.41421356237309503
10
122.08750000000002
20
-73.674999999999997
10
135.08750000000001
20
-73.674999999999997
42
0.41421356237309503
0
LWPOLYLINE
5
128
100
AcDbEntity
8
0
100
AcDbPolyline
90
8
70
1
43
0.0
10
77.9375
20
-59.675000000000004
10
64.9375
20
-59.675000000000004
42
0.41421356237309503
10
64.4375
20
-60.174999999999997
10
64.4375
20
-73.174999999999997
42
0.41421356237309503
10
64.9375
20
-73.674999999999997
10
77.9375
20
-73.674999999999997
42
0.41421356237309503
10
78.4375
20
-73.174999999999997
10
78.4375
20
-60.174999999999997
42
0.41421356237309503
0
LWPOLYLINE
5
129
100
AcDbEntity
8
0
100
AcDbPolyline
90
8
70
1
43
0.0
10
96.987500000000011
20
-59.675000000000004
10
83.987499999999997
20
-59.675000000000004
42
0.41421356237309503
10
83.487500000000011
20
-60.174999999999997
10
83.487499999999983
20
-73.174999999999997
42
0.41421356237309503
10
83.987499999999997
20
-73.674999999999997
10
96.987500000000011
20
-73.674999999999997
42
0.41421356237309503
10
97.487500000000011
20
-73.174999999999997
10
97.487500000000011
20
-60.174999999999997
42
0.41421356237309503
0
LWPOLYLINE
5
130
100
AcDbEntity
8
0
100
AcDbPolyline
90
8
70
1
43
0.0
10
192.73750000000004
20
-60.174999999999997
42
0.41421356237309503
10
192.23750000000001
20
-59.675000000000004
10
179.23750000000001
20
-59.675000000000004
42
0.41421356237309503
10
178.73750000000001
20
-60.174999999999997
10
178.73750000000001
20
-73.174999999999997
42
0.41421356237309503
10
179.23750000000001
20
-73.674999999999997
10
192.23750000000001
20
-73.674999999999997
42
0.41421356237309503
10
192.73750000000004
20
-73.174999999999997
0
LWPOLYLINE
5
131
100
AcDbEntity
8
0
100
AcDbPolyline
90
8
70
1
43
0.0
10
116.53750000000001
20
-60.174999999999997
42
0.41421356237309503
10
116.03749999999999
20
-59.675000000000004
10
103.03750000000001
20
-59.675000000000004
42
0.41421356237309503
10
102.53749999999999
20
-60.174999999999997
10
102.53749999999999
20
-73.174999999999997
42
0.41421356237309503
10
103.03750000000001
20
-73.674999999999997
10
116.03749999999999
20
-73.674999999999997
42
0.41421356237309503
10
116.53750000000001
20
-73.174999999999997
0
LWPOLYLINE
5
132
100
AcDbEntity
8
0
100
AcDbPolyline
90
8
70
1
43
0.0
10
211.78750000000002
20
-60.174999999999997
42
0.41421356237309503
10
211.28749999999999
20
-59.675000000000004
10
198.28749999999999
20
-59.675000000000004
42
0.41421356237309503
10
197.78749999999999
20
-60.174999999999997
10
197.78749999999999
20
-73.174999999999997
42
0.41421356237309503
10
198.28749999999999
20
-73.674999999999997
10
211.28749999999999
20
-73.674999999999997
42
0.41421356237309503
10
211.78750000000002
20
-73.174999999999997
0
LWPOLYLINE
5
133
100
AcDbEntity
8
0
100
AcDbPolyline
90
8
70
1
43
0.0
10
140.63749999999999
20
-60.174999999999997
10
140.63749999999999
20
-73.174999999999997
42
0.41421356237309503
10
141.13749999999999
20
-73.674999999999997
10
154.13749999999999
20
-73.674999999999997
42
0.41421356237309503
10
154.63749999999999
20
-73.174999999999997
10
154.63750000000002
20
-60.174999999999997
42
0.41421356237309503
10
154.13749999999999
20
-59.675000000000004
10
141.13749999999999
20
-59.675000000000004
42
0.41421356237309503
0
LWPOLYLINE
5
134
100
AcDbEntity
8
0
100
AcDbPolyline
90
8
70
1
43
0.0
10
230.83750000000003
20
-73.174999999999997
10
230.83750000000003
20
-60.174999999999997
42
0.41421356237309503
10
230.33750000000001
20
-59.675000000000004
10
217.33750000000001
20
-59.675000000000004
42
0.41421356237309503
10
216.83750000000001
20
-60.174999999999997
10
216.83750000000001
20
-73.174999999999997
42
0.41421356237309503
10
217.33750000000001
20
-73.674999999999997
10
230.33750000000001
20
-73.674999999999997
42
0.41421356237309503
0
LWPOLYLINE
5
135
100
AcDbEntity
8
0
100
AcDbPolyline
90
8
70
1
43
0.0
10
173.68750000000003
20
-73.174999999999997
10
173.68750000000003
20
-60.174999999999997
42
0.41421356237309503
10
173.1875
20
-59.675000000000004
10
160.1875
20
-59.675000000000004
42
0.41421356237309503
10
159.6875
20
-60.174999999999997
10
159.6875
20
-73.174999999999997
42
0.41421356237309503
10
160.1875
20
-73.674999999999997
10
173.1875
20
-73.674999999999997
42
0.41421356237309503
0
LWPOLYLINE
5
136
100
AcDbEntity
8
0
100
AcDbPolyline
90
8
70
1
43
0.0
10
97.775000000000006
20
-92.224999999999994
42
0.41421356237309503
10
98.275000000000006
20
-92.725000000000009
10
111.27500000000001
20
-92.725000000000009
42
0.41421356237309503
10
111.77500000000002
20
-92.224999999999994
10
111.77500000000002
20
-79.224999999999994
42
0.41421356237309503
10
111.27500000000001
20
-78.724999999999994
10
98.275000000000006
20
-78.724999999999994
42
0.41421356237309503
10
97.775000000000006
20
-79.224999999999994
0
LWPOLYLINE
5
137
100
AcDbEntity
8
0
100
AcDbPolyline
90
8
70
1
43
0.0
10
283.22500000000002
20
-60.174999999999997
42
0.41421356237309503
10
282.72500000000002
20
-59.675000000000004
10
269.72500000000002
20
-59.675000000000004
42
0.41421356237309503
10
269.22500000000002
20
-60.174999999999997
10
269.22500000000002
20
-73.174999999999997
42
0.41421356237309503
10
269.72500000000002
20
-73.674999999999997
10
282.72500000000002
20
-73.674999999999997
42
0.41421356237309503
10
283.22500000000002
20
-73.174999999999997
0
LWPOLYLINE
5
138
100
AcDbEntity
8
0
100
AcDbPolyline
90
8
70
1
43
0.0
10
55.412500000000009
20
-78.724999999999994
42
0.41421356237309503
10
54.912500000000009
20
-79.224999999999994
10
54.912500000000009
20
-92.224999999999994
42
0.41421356237309503
10
55.412500000000009
20
-92.724999999999994
10
68.412499999999994
20
-92.725000000000009
42
0.41421356237309503
10
68.912499999999994
20
-92.224999999999994
10
68.912499999999994
20
-79.224999999999994
42
0.41421356237309503
10
68.412499999999994
20
-78.724999999999994
0
LWPOLYLINE
5
139
100
AcDbEntity
8
0
100
AcDbPolyline
90
8
70
1
43
0.0
10
256.53125
20
-59.675000000000004
10
243.53125000000003
20
-59.675000000000004
42
0.41421356237309503
10
243.03125
20
-60.174999999999997
10
243.03125
20
-73.174999999999997
42
0.41421356237309503
10
243.53125000000003
20
-73.674999999999997
10
256.53125
20
-73.674999999999997
42
0.41421356237309503
10
257.03125000000006
20
-73.174999999999997
10
257.03125000000006
20
-60.174999999999997
42
0.41421356237309503
0
LWPOLYLINE
5
140
100
AcDbEntity
8
0
100
AcDbPolyline
90
8
70
1
43
0.0
10
44.600000000000001
20
-92.725000000000009
42
0.41421356237309503
10
45.099999999999994
20
-92.224999999999994
10
45.099999999999994
20
-79.224999999999994
42
0.41421356237309503
10
44.600000000000001
20
-78.724999999999994
10
31.600000000000001
20
-78.724999999999994
42
0.41421356237309503
10
31.100000000000001
20
-79.224999999999994
10
31.100000000000001
20
-92.224999999999994
42
0.41421356237309503
10
31.600000000000001
20
-92.725000000000009
0
LWPOLYLINE
5
141
100
AcDbEntity
8
0
100
AcDbPolyline
90
14
70
1
43
0.0
10
177.82499999999999
20
-88.275000000000006
42
0.41421356237309503
10
178.32499999999999
20
-88.775000000000006
10
183.625
20
-88.775000000000006
42
0.41421356237309503
10
184.125
20
-88.275000000000006
10
184.125
20
-82.424999999999997
42
0.41421356237309503
10
183.625
20
-81.925000000000011
10
182.77500000000001
20
-81.925000000000011
10
182.77500000000003
20
-77.775000000000006
42
0.41421356237309503
10
182.27500000000003
20
-77.275000000000006
10
179.67500000000001
20
-77.275000000000006
42
0.41421356237309503
10
179.17500000000001
20
-77.775000000000006
10
179.17500000000001
20
-81.925000000000011
10
178.32499999999999
20
-81.924999999999983
42
0.41421356237309503
10
177.82499999999999
20
-82.424999999999997
0
LWPOLYLINE
5
142
100
AcDbEntity
8
0
100
AcDbPolyline
90
14
70
1
43
0.0
10
88.875000000000014
20
-82.424999999999997
42
0.41421356237309503
10
88.375
20
-81.924999999999983
10
87.525000000000006
20
-81.925000000000011
10
87.525000000000006
20
-77.775000000000006
42
0.41421356237309503
10
87.025000000000006
20
-77.275000000000006
10
84.425000000000011
20
-77.275000000000006
42
0.41421356237309503
10
83.924999999999997
20
-77.775000000000006
10
83.924999999999997
20
-81.925000000000011
10
83.075000000000017
20
-81.924999999999983
42
0.41421356237309503
10
82.575000000000003
20
-82.424999999999997
10
82.575000000000003
20
-88.275000000000006
42
0.41421356237309503
10
83.075000000000017
20
-88.775000000000006
10
88.375
20
-88.775000000000006
42
0.41421356237309503
10
88.875000000000014
20
-88.275000000000006
0
LWPOLYLINE
5
143
100
AcDbEntity
8
0
100
AcDbPolyline
90
14
70
1
43
0.0
10
125.625
20
-81.925000000000011
10
125.62500000000001
20
-77.775000000000006
42
0.41421356237309503
10
125.12500000000001
20
-77.275000000000006
10
122.52500000000001
20
-77.275000000000006
42
0.41421356237309503
10
122.02500000000001
20
-77.775000000000006
10
122.02500000000001
20
-81.925000000000011
10
121.175
20
-81.924999999999983
42
0.41421356237309503
10
120.67500000000001
20
-82.424999999999997
10
120.67499999999998
20
-88.275000000000006
42
0.41421356237309503
10
121.175
20
-88.775000000000006
10
126.47500000000001
20
-88.775000000000006
42
0.41421356237309503
10
126.97500000000002
20
-88.275000000000006
10
126.97500000000002
20
-82.424999999999997
42
0.41421356237309503
10
126.47500000000001
20
-81.925000000000011
0
LWPOLYLINE
5
144
100
AcDbEntity
8
0
100
AcDbPolyline
90
8
70
1
43
0.0
10
155.42500000000001
20
-92.724999999999994
10
168.42500000000001
20
-92.725000000000009
42
0.41421356237309503
10
168.92500000000001
20
-92.224999999999994
10
168.92500000000001
20
-79.224999999999994
42
0.41421356237309503
10
168.42500000000001
20
-78.724999999999994
10
155.42500000000001
20
-78.724999999999994
42
0.41421356237309503
10
154.92500000000001
20
-79.224999999999994
10
154.92500000000001
20
-92.224999999999994
42
0.41421356237309503
0
LWPOLYLINE
5
145
100
AcDbEntity
8
0
100
AcDbPolyline
90
14
70
1
43
0.0
10
140.22500000000002
20
-88.775000000000006
10
145.52500000000003
20
-88.775000000000006
42
0.41421356237309503
10
146.02500000000003
20
-88.275000000000006
10
146.02500000000003
20
-82.424999999999997
42
0.41421356237309503
10
145.52500000000003
20
-81.924999999999983
10
144.67500000000001
20
-81.925000000000011
10
144.67500000000004
20
-77.775000000000006
42
0.41421356237309503
10
144.17500000000001
20
-77.275000000000006
10
141.57499999999999
20
-77.275000000000006
42
0.41421356237309503
10
141.07499999999999
20
-77.775000000000006
10
141.07499999999999
20
-81.925000000000011
10
140.22500000000002
20
-81.924999999999983
42
0.41421356237309503
10
139.72499999999999
20
-82.424999999999997
10
139.72499999999999
20
-88.275000000000006
42
0.41421356237309503
0
LWPOLYLINE
5
146
100
AcDbEntity
8
0
100
AcDbPolyline
90
8
70
1
43
0.0
10
198.28749999999999
20
-92.724999999999994
10
211.28749999999999
20
-92.725000000000009
42
0.41421356237309503
10
211.78750000000002
20
-92.224999999999994
10
211.78750000000002
20
-79.224999999999994
42
0.41421356237309503
10
211.28749999999999
20
-78.724999999999994
10
198.28749999999999
20
-78.724999999999994
42
0.41421356237309503
10
197.78750000000002
20
-79.224999999999994
10
197.78749999999999
20
-92.224999999999994
42
0.41421356237309503
0
LWPOLYLINE
5
147
100
AcDbEntity
8
0
100
AcDbPolyline
90
8
70
1
43
0.0
10
235.60000000000002
20
-79.224999999999994
42
0.41421356237309503
10
235.10000000000002
20
-78.724999999999994
10
222.10000000000002
20
-78.724999999999994
42
0.41421356237309503
10
221.59999999999999
20
-79.224999999999994
10
221.59999999999999
20
-92.224999999999994
42
0.41421356237309503
10
222.10000000000002
20
-92.724999999999994
10
235.10000000000002
20
-92.725000000000009
42
0.41421356237309503
10
235.60000000000002
20
-92.224999999999994
0
LWPOLYLINE
5
148
100
AcDbEntity
8
0
100
AcDbPolyline
90
8
70
1
43
0.0
10
73.674999999999997
20
-16.024999999999999
10
73.674999999999997
20
-3.0249999999999999
42
0.41421356237309503
10
73.174999999999997
20
-2.5249999999999999
10
60.174999999999997
20
-2.5249999999999999
42
0.41421356237309503
10
59.675000000000004
20
-3.0249999999999999
10
59.675000000000004
20
-16.024999999999999
42
0.41421356237309503
10
60.174999999999997
20
-16.524999999999999
10
73.174999999999997
20
-16.525000000000002
42
0.41421356237309503
0
LWPOLYLINE
5
149
100
AcDbEntity
8
0
100
AcDbPolyline
90
8
70
1
43
0.0
10
54.625
20
-16.024999999999999
10
54.625
20
-3.0249999999999999
42
0.41421356237309503
10
54.125000000000007
20
-2.5249999999999999
10
41.125
20
-2.5249999999999999
42
0.41421356237309503
10
40.625
20
-3.0249999999999999
10
40.625
20
-16.024999999999999
42
0.41421356237309503
10
41.125
20
-16.524999999999999
10
54.125000000000007
20
-16.525000000000002
42
0.41421356237309503
0
LWPOLYLINE
5
150
100
AcDbEntity
8
0
100
AcDbPolyline
90
8
70
1
43
0.0
10
35.075000000000003
20
-2.5249999999999999
10
22.074999999999999
20
-2.5249999999999999
42
0.41421356237309503
10
21.575000000000003
20
-3.0249999999999999
10
21.575000000000003
20
-16.024999999999999
42
0.41421356237309503
10
22.074999999999999
20
-16.524999999999999
10
35.075000000000003
20
-16.525000000000002
42
0.41421356237309503
10
35.575000000000003
20
-16.024999999999999
10
35.575000000000003
20
-3.0249999999999999
42
0.41421356237309503
0
LWPOLYLINE
5
151
100
AcDbEntity
8
0
100
AcDbPolyline
90
8
70
1
43
0.0
10
92.724999999999994
20
-16.024999999999999
10
92.725000000000009
20
-3.0249999999999999
42
0.41421356237309503
10
92.224999999999994
20
-2.5249999999999999
10
79.224999999999994
20
-2.5249999999999999
42
0.41421356237309503
10
78.724999999999994
20
-3.0249999999999999
10
78.724999999999994
20
-16.024999999999999
42
0.41421356237309503
10
79.224999999999994
20
-16.525000000000002
10
92.224999999999994
20
-16.525000000000002
42
0.41421356237309503
0
LWPOLYLINE
5
152
100
AcDbEntity
8
0
100
AcDbPolyline
90
8
70
1
43
0.0
10
2.5249999999999999
20
-16.024999999999999
42
0.41421356237309503
10
3.0249999999999999
20
-16.525000000000002
10
16.024999999999999
20
-16.525000000000002
42
0.41421356237309503
10
16.525000000000002
20
-16.024999999999999
10
16.525000000000002
20
-3.0249999999999999
42
0.41421356237309503
10
16.024999999999999
20
-2.5249999999999999
10
3.0249999999999999
20
-2.5249999999999999
42
0.41421356237309503
10
2.5249999999999999
20
-3.0249999999999999
0
LWPOLYLINE
5
153
100
AcDbEntity
8
0
100
AcDbPolyline
90
8
70
1
43
0.0
10
130.82499999999999
20
-16.024999999999999
10
130.82499999999999
20
-3.0249999999999999
42
0.41421356237309503
10
130.32499999999999
20
-2.5249999999999999
10
117.32500000000002
20
-2.5249999999999999
42
0.41421356237309503
10
116.82500000000002
20
-3.0249999999999999
10
116.82500000000002
20
-16.024999999999999
42
0.41421356237309503
10
117.32500000000002
20
-16.525000000000002
10
130.32499999999999
20
-16.525000000000002
42
0.41421356237309503
0
LWPOLYLINE
5
154
100
AcDbEntity
8
0
100
AcDbPolyline
90
8
70
1
43
0.0
10
98.275000000000006
20
-2.5249999999999999
42
0.41421356237309503
10
97.775000000000006
20
-3.0249999999999999
10
97.775000000000006
20
-16.024999999999999
42
0.41421356237309503
10
98.275000000000006
20
-16.525000000000002
10
111.27500000000001
20
-16.525000000000002
42
0.41421356237309503
10
111.77500000000002
20
-16.024999999999999
10
111.77500000000002
20
-3.0249999999999999
42
0.41421356237309503
10
111.27500000000001
20
-2.5249999999999999
0
LWPOLYLINE
5
155
100
AcDbEntity
8
0
100
AcDbPolyline
90
8
70
1
43
0.0
10
149.875
20
-3.0249999999999999
42
0.41421356237309503
10
149.375
20
-2.5249999999999999
10
136.375
20
-2.5249999999999999
42
0.41421356237309503
10
135.875
20
-3.0249999999999999
10
135.875
20
-16.024999999999999
42
0.41421356237309503
10
136.375
20
-16.524999999999999
10
149.375
20
-16.525000000000002
42
0.41421356237309503
10
149.875
20
-16.024999999999999
0
LWPOLYLINE
5
156
100
AcDbEntity
8
0
100
AcDbPolyline
90
8
70
1
43
0.0
10
226.07500000000002
20
-16.024999999999999
10
226.07500000000002
20
-3.0249999999999999
42
0.41421356237309503
10
225.57500000000002
20
-2.5249999999999999
10
212.57499999999999
20
-2.5249999999999999
42
0.41421356237309503
10
212.07499999999999
20
-3.0249999999999999
10
212.07499999999999
20
-16.024999999999999
42
0.41421356237309503
10
212.57499999999999
20
-16.524999999999999
10
225.57500000000002
20
-16.525000000000002
42
0.41421356237309503
0
LWPOLYLINE
5
157
100
AcDbEntity
8
0
100
AcDbPolyline
90
8
70
1
43
0.0
10
174.47500000000002
20
-16.524999999999999
10
187.47499999999999
20
-16.525000000000002
42
0.41421356237309503
10
187.97499999999999
20
-16.024999999999999
10
187.97499999999999
20
-3.0249999999999999
42
0.41421356237309503
10
187.47499999999999
20
-2.5249999999999999
10
174.47500000000002
20
-2.5249999999999999
42
0.41421356237309503
10
173.97500000000002
20
-3.0249999999999999
10
173.97500000000002
20
-16.024999999999999
42
0.41421356237309503
0
LWPOLYLINE
5
158
100
AcDbEntity
8
0
100
AcDbPolyline
90
8
70
1
43
0.0
10
168.42500000000001
20
-2.5249999999999999
10
155.42500000000001
20
-2.5249999999999999
42
0.41421356237309503
10
154.92500000000001
20
-3.0249999999999999
10
154.92500000000001
20
-16.024999999999999
42
0.41421356237309503
10
155.42500000000001
20
-16.525000000000002
10
168.42500000000001
20
-16.525000000000002
42
0.41421356237309503
10
168.92500000000001
20
-16.024999999999999
10
168.92500000000001
20
-3.0249999999999999
42
0.41421356237309503
0
LWPOLYLINE
5
159
100
AcDbEntity
8
0
100
AcDbPolyline
90
8
70
1
43
0.0
10
21.287500000000001
20
-22.074999999999999
42
0.41421356237309503
10
20.787500000000001
20
-21.575000000000003
10
7.7875000000000005
20
-21.575000000000003
42
0.41421356237309503
10
7.2874999999999996
20
-22.074999999999999
10
7.2874999999999996
20
-35.075000000000003
42
0.41421356237309503
10
7.7875000000000005
20
-35.575000000000003
10
20.787500000000001
20
-35.575000000000003
42
0.41421356237309503
10
21.287500000000001
20
-35.075000000000003
0
LWPOLYLINE
5
160
100
AcDbEntity
8
0
100
AcDbPolyline
90
8
70
1
43
0.0
10
250.67500000000001
20
-16.524999999999999
10
263.67500000000001
20
-16.525000000000002
42
0.41421356237309503
10
264.17500000000007
20
-16.024999999999999
10
264.17500000000007
20
-3.0249999999999999
42
0.41421356237309503
10
263.67500000000001
20
-2.5249999999999999
10
250.67500000000001
20
-2.5249999999999999
42
0.41421356237309503
10
250.17500000000001
20
-3.0249999999999999
10
250.17500000000001
20
-16.024999999999999
42
0.41421356237309503
0
LWPOLYLINE
5
161
100
AcDbEntity
8
0
100
AcDbPolyline
90
8
70
1
43
0.0
10
206.52500000000003
20
-2.5249999999999999
10
193.52500000000003
20
-2.5249999999999999
42
0.41421356237309503
10
193.02500000000003
20
-3.0249999999999999
10
193.02500000000003
20
-16.024999999999999
42
0.41421356237309503
10
193.52500000000003
20
-16.524999999999999
10
206.52500000000003
20
-16.525000000000002
42
0.41421356237309503
10
207.02500000000003
20
-16.024999999999999
10
207.02500000000003
20
-3.0249999999999999
42
0.41421356237309503
0
LWPOLYLINE
5
162
100
AcDbEntity
8
0
100
AcDbPolyline
90
8
70
1
43
0.0
10
245.12500000000003
20
-3.0249999999999999
42
0.41421356237309503
10
244.62500000000003
20
-2.5249999999999999
10
231.625
20
-2.5249999999999999
42
0.41421356237309503
10
231.125
20
-3.0249999999999999
10
231.125
20
-16.024999999999999
42
0.41421356237309503
10
231.625
20
-16.524999999999999
10
244.62500000000003
20
-16.525000000000002
42
0.41421356237309503
10
245.12500000000003
20
-16.024999999999999
0
LWPOLYLINE
5
163
100
AcDbEntity
8
0
100
AcDbPolyline
90
8
70
1
43
0.0
10
283.22500000000002
20
-16.024999999999999
10
283.22500000000002
20
-3.0249999999999999
42
0.41421356237309503
10
282.72500000000002
20
-2.5249999999999999
10
269.72500000000002
20
-2.5249999999999999
42
0.41421356237309503
10
269.22500000000002
20
-3.0249999999999999
10
269.22500000000002
20
-16.024999999999999
42
0.41421356237309503
10
269.72500000000002
20
-16.525000000000002
10
282.72500000000002
20
-16.525000000000002
42
0.41421356237309503
0
LWPOLYLINE
5
164
100
AcDbEntity
8
0
100
AcDbPolyline
90
8
70
1
43
0.0
10
107.30000000000001
20
-35.075000000000003
42
0.41421356237309503
10
107.80000000000001
20
-35.575000000000003
10
120.8
20
-35.575000000000003
42
0.41421356237309503
10
121.30000000000001
20
-35.075000000000003
10
121.30000000000001
20
-22.074999999999999
42
0.41421356237309503
10
120.8
20
-21.575000000000003
10
107.80000000000001
20
-21.575000000000003
42
0.41421356237309503
10
107.30000000000001
20
-22.074999999999999
0
LWPOLYLINE
5
165
100
AcDbEntity
8
0
100
AcDbPolyline
90
8
70
1
43
0.0
10
88.250000000000014
20
-22.074999999999999
10
88.25
20
-35.075000000000003
42
0.41421356237309503
10
88.75
20
-35.575000000000003
10
101.75
20
-35.575000000000003
42
0.41421356237309503
10
102.25000000000001
20
-35.075000000000003
10
102.25000000000001
20
-22.074999999999999
42
0.41421356237309503
10
101.75
20
-21.575000000000003
10
88.75
20
-21.575000000000003
42
0.41421356237309503
0
LWPOLYLINE
5
166
100
AcDbEntity
8
0
100
AcDbPolyline
90
8
70
1
43
0.0
10
31.100000000000001
20
-35.075000000000003
42
0.41421356237309503
10
31.600000000000001
20
-35.575000000000003
10
44.600000000000001
20
-35.575000000000003
42
0.41421356237309503
10
45.100000000000009
20
-35.075000000000003
10
45.099999999999994
20
-22.074999999999999
42
0.41421356237309503
10
44.600000000000001
20
-21.575000000000003
10
31.600000000000001
20
-21.575000000000003
42
0.41421356237309503
10
31.100000000000001
20
-22.074999999999999
0
LWPOLYLINE
5
167
100
AcDbEntity
8
0
100
AcDbPolyline
90
8
70
1
43
0.0
10
139.84999999999999
20
-35.575000000000003
42
0.41421356237309503
10
140.34999999999999
20
-35.075000000000003
10
140.34999999999999
20
-22.074999999999999
42
0.41421356237309503
10
139.84999999999999
20
-21.575000000000003
10
126.85000000000001
20
-21.575000000000003
42
0.41421356237309503
10
126.34999999999999
20
-22.074999999999999
10
126.34999999999999
20
-35.075000000000003
42
0.41421356237309503
10
126.85000000000001
20
-35.575000000000003
0
LWPOLYLINE
5
168
100
AcDbEntity
8
0
100
AcDbPolyline
90
8
70
1
43
0.0
10
69.200000000000003
20
-35.075000000000003
42
0.41421356237309503
10
69.700000000000003
20
-35.575000000000003
10
82.700000000000017
20
-35.575000000000003
42
0.41421356237309503
10
83.200000000000017
20
-35.075000000000003
10
83.200000000000017
20
-22.074999999999999
42
0.41421356237309503
10
82.700000000000017
20
-21.575000000000003
10
69.700000000000003
20
-21.575000000000003
42
0.41421356237309503
10
69.200000000000003
20
-22.074999999999999
0
LWPOLYLINE
5
169
100
AcDbEntity
8
0
100
AcDbPolyline
90
8
70
1
43
0.0
10
63.650000000000006
20
-21.575000000000003
10
50.650000000000006
20
-21.575000000000003
42
0.41421356237309503
10
50.150000000000006
20
-22.074999999999999
10
50.150000000000006
20
-35.075000000000003
42
0.41421356237309503
10
50.650000000000006
20
-35.575000000000003
10
63.650000000000006
20
-35.575000000000003
42
0.41421356237309503
10
64.150000000000006
20
-35.075000000000003
10
64.150000000000006
20
-22.074999999999999
42
0.41421356237309503
0
LWPOLYLINE
5
170
100
AcDbEntity
8
0
100
AcDbPolyline
90
8
70
1
43
0.0
10
197.50000000000003
20
-22.074999999999999
42
0.41421356237309503
10
197.00000000000003
20
-21.575000000000003
10
184.00000000000003
20
-21.575000000000003
42
0.41421356237309503
10
183.5
20
-22.074999999999999
10
183.5
20
-35.075000000000003
42
0.41421356237309503
10
184.00000000000003
20
-35.575000000000003
10
197.00000000000003
20
-35.575000000000003
42
0.41421356237309503
10
197.50000000000003
20
-35.075000000000003
0
LWPOLYLINE
5
171
100
AcDbEntity
8
0
100
AcDbPolyline
90
8
70
1
43
0.0
10
164.95000000000002
20
-35.575000000000003
10
177.94999999999999
20
-35.575000000000003
42
0.41421356237309503
10
178.44999999999999
20
-35.075000000000003
10
178.44999999999999
20
-22.074999999999999
42
0.41421356237309503
10
177.94999999999999
20
-21.575000000000003
10
164.95000000000002
20
-21.575000000000003
42
0.41421356237309503
10
164.44999999999999
20
-22.074999999999999
10
164.44999999999999
20
-35.075000000000003
42
0.41421356237309503
0
LWPOLYLINE
5
172
100
AcDbEntity
8
0
100
AcDbPolyline
90
8
70
1
43
0.0
10
235.10000000000002
20
-21.575000000000003
10
222.10000000000002
20
-21.575000000000003
42
0.41421356237309503
10
221.59999999999999
20
-22.074999999999999
10
221.59999999999999
20
-35.075000000000003
42
0.41421356237309503
10
222.10000000000002
20
-35.575000000000003
10
235.10000000000002
20
-35.575000000000003
42
0.41421356237309503
10
235.60000000000002
20
-35.075000000000003
10
235.60000000000002
20
-22.074999999999999
42
0.41421356237309503
0
LWPOLYLINE
5
173
100
AcDbEntity
8
0
100
AcDbPolyline
90
8
70
1
43
0.0
10
145.40000000000001
20
-22.074999999999999
10
145.40000000000001
20
-35.075000000000003
42
0.41421356237309503
10
145.90000000000001
20
-35.575000000000003
10
158.90000000000001
20
-35.575000000000003
42
0.41421356237309503
10
159.40000000000001
20
-35.075000000000003
10
159.40000000000001
20
-22.074999999999999
42
0.41421356237309503
10
158.90000000000001
20
-21.575000000000003
10
145.90000000000001
20
-21.575000000000003
42
0.41421356237309503
0
LWPOLYLINE
5
174
100
AcDbEntity
8
0
100
AcDbPolyline
90
8
70
1
43
0.0
10
202.55000000000001
20
-35.075000000000003
42
0.41421356237309503
10
203.05000000000004
20
-35.575000000000003
10
216.05000000000004
20
-35.575000000000003
42
0.41421356237309503
10
216.55000000000001
20
-35.075000000000003
10
216.55000000000004
20
-22.074999999999999
42
0.41421356237309503
10
216.05000000000004
20
-21.575000000000003
10
203.05000000000004
20
-21.575000000000003
42
0.41421356237309503
10
202.55000000000001
20
-22.074999999999999
0
SPLINE
5
175
100
AcDbEntity
8
0
100
AcDbSpline
70
2
71
3
72
17
73
13
74
0
42
0.000000001
43
0.0000000001
44
0.0000000001
40
0
40
0
40
0
40
0
40
1
40
1
40
1
40
2
40
2
40
2
40
3
40
3
40
3
40
4
40
4
40
4
40
4
10
28.075488956457832
20
-28.226480588351972
30
0
10
28.075488956457832
20
-26.845858572638104
30
0
10
26.956177433300155
20
-25.72654704948043
30
0
10
25.575555417586287
20
-25.72654704948043
30
0
10
24.194761147098156
20
-25.72654704948043
30
0
10
23.075449623940479
20
-26.845858572638104
30
0
10
23.075449623940479
20
-28.226480588351972
30
0
10
23.075449623940479
20
-29.607274858840125
30
0
10
24.194761147098156
20
-30.726586381997798
30
0
10
25.575555417586287
20
-30.726586381997798
30
0
10
26.956177433300155
20
-30.726586381997798
30
0
10
28.075488956457832
20
-29.607274858840125
30
0
10
28.075488956457832
20
-28.226480588351972
30
0
0
SPLINE
5
176
100
AcDbEntity
8
0
100
AcDbSpline
70
0
71
3
72
11
73
7
74
0
42
0.000000001
43
0.0000000001
44
0.0000000001
40
0
40
0
40
0
40
0
40
1
40
1
40
1
40
2
40
2
40
2
40
2
10
3.6895528188911166
20
-59.325185278927997
30
0
10
5.0693135607336774
20
-59.325185278927997
30
0
10
6.1879360647942994
20
-58.206562774867407
30
0
10
6.1879360647942994
20
-56.826802033024784
30
0
10
6.1879360647942994
20
-55.446696781633698
30
0
10
5.0693135607336774
20
-54.328418787121592
30
0
10
3.6895528188911166
20
-54.328418787121592
30
0
0
LINE
5
177
100
AcDbEntity
8
0
100
AcDbLine
10
1.1997823117010575
20
-54.328418787121592
30
0
11
3.6895528188911166
21
-54.328418787121592
31
0
0
LINE
5
178
100
AcDbEntity
8
0
100
AcDbLine
10
1.1997823117010575
20
-59.325185278927997
30
0
11
3.6895528188911166
21
-59.325185278927997
31
0
0
SPLINE
5
179
100
AcDbEntity
8
0
100
AcDbSpline
70
2
71
3
72
15
73
11
74
0
42
0.000000001
43
0.0000000001
44
0.0000000001
40
0
40
0
40
0
40
0
40
1
40
1
40
2
40
2
40
2
40
3
40
3
40
4
40
4
40
4
40
4
10
262.92471985477681
20
-28.225963824029208
30
0
10
262.92471985477681
20
-26.845341808315322
30
0
10
261.80575284116759
20
-25.726030285157648
30
0
10
259.04416430019137
20
-25.726030285157648
30
0
10
257.92485277703366
20
-26.845341808315322
30
0
10
257.92485277703366
20
-28.225963824029208
30
0
10
257.92485277703366
20
-29.606758094517343
30
0
10
259.04416430019137
20
-30.726069617674998
30
0
10
261.80575284116759
20
-30.726069617674998
30
0
10
262.92471985477681
20
-29.606758094517343
30
0
10
262.92471985477681
20
-28.225963824029208
30
0
0
SPLINE
5
180
100
AcDbEntity
8
0
100
AcDbSpline
70
0
71
3
72
11
73
7
74
0
42
0.000000001
43
0.0000000001
44
0.0000000001
40
0
40
0
40
0
40
0
40
1
40
1
40
1
40
2
40
2
40
2
40
2
10
282.06015821804851
20
-54.328418787121592
30
0
10
280.68039747620583
20
-54.328418787121592
30
0
10
279.56177497214526
20
-55.446696781633698
30
0
10
279.56177497214526
20
-56.826802033024784
30
0
10
279.56177497214526
20
-58.206562774867407
30
0
10
280.68039747620583
20
-59.325185278927997
30
0
10
282.06015821804851
20
-59.325185278927997
30
0
0
LINE
5
181
100
AcDbEntity
8
0
100
AcDbLine
10
284.54992872523854
20
-54.328418787121592
30
0
11
282.06015821804851
21
-54.328418787121592
31
0
0
LINE
5
182
100
AcDbEntity
8
0
100
AcDbLine
10
284.54992872523854
20
-59.325185278927997
30
0
11
282.06015821804851
21
-59.325185278927997
31
0
0
ARC
5
183
100
AcDbEntity
8
0
100
AcDbCircle
10
1.1997823117010573
20
-60.524967590629053
30
0
40
1.1997823117010586
210
0
220
-0
230
1
100
AcDbArc
50
89.999999999999986
51
180
0
ARC
5
184
100
AcDbEntity
8
0
100
AcDbCircle
10
1.1997823117010573
20
-53.128636475420528
30
0
40
1.1997823117010586
210
0
220
0
230
1
100
AcDbArc
50
180
51
270
0
LINE
5
185
100
AcDbEntity
8
0
100
AcDbLine
10
-1.3877787807814457e-15
20
-60.524967590629053
30
0
11
-2.4980018054066022e-15
21
-74.999998296797273
31
0
0
LINE
5
186
100
AcDbEntity
8
0
100
AcDbLine
10
-1.2490009027033011e-15
20
-53.128636475420528
30
0
11
-1.3877787807814457e-16
21
-1.2000000000000013
31
0
0
ARC
5
187
100
AcDbEntity
8
0
100
AcDbCircle
10
284.54992872523854
20
-60.52525016667925
30
0
40
1.2000648877512532
210
0
220
-0
230
1
100
AcDbArc
50
0
51
90
0
ARC
5
188
100
AcDbEntity
8
0
100
AcDbCircle
10
284.54992872523854
20
-53.128353899370339
30
0
40
1.2000648877512532
210
-0
220
0
230
1
100
AcDbArc
50
-90
51
0
0
LINE
5
189
100
AcDbEntity
8
0
100
AcDbLine
10
285.74999361298978
20
-60.52525016667925
30
0
11
285.74999361298978
21
-74.999998296797273
31
0
0
LINE
5
190
100
AcDbEntity
8
0
100
AcDbLine
10
285.74999361298978
20
-1.1999999999999995
30
0
11
285.74999361298978
21
-53.128353899370339
31
0
0
ARC
5
191
100
AcDbEntity
8
0
100
AcDbCircle
10
284.54999361298979
20
-74.999998296797273
30
0
40
1.2000000000000011
210
0
220
0
230
1
100
AcDbArc
50
-90
51
0
0
ARC
5
192
100
AcDbEntity
8
0
100
AcDbCircle
10
284.54999361298979
20
-1.1999999999999926
30
0
40
1.2000000000000099
210
-0
220
0
230
1
100
AcDbArc
50
0
51
90
0
ARC
5
193
100
AcDbEntity
8
0
100
AcDbCircle
10
1.1999999999999995
20
-1.1999999999999997
30
0
40
1.1999999999999997
210
0
220
-0
230
1
100
AcDbArc
50
89.999999999999986
51
180
0
ARC
5
194
100
AcDbEntity
8
0
100
AcDbCircle
10
1.1999999999999984
20
-74.999998296797273
30
0
40
1.2000000000000008
210
0
220
-0
230
1
100
AcDbArc
50
180
51
270.00000000000006
0
ARC
5
195
100
AcDbEntity
8
0
100
AcDbCircle
10
29.775001357239667
20
-94.05000452413222
30
0
40
1.2000000000000099
210
0
220
0
230
1
100
AcDbArc
50
180
51
270.00000000000034
0
ARC
5
196
100
AcDbEntity
8
0
100
AcDbCircle
10
236.92502369755368
20
-94.05000452413222
30
0
40
1.2000000000000099
210
0
220
0
230
1
100
AcDbArc
50
270
51
360
0
ENDSEC
0
SECTION
2
OBJECTS
0
DICTIONARY
5
C
100
AcDbDictionary
3
ACAD_GROUP
350
D
3
ACAD_MLINESTYLE
350
17
0
DICTIONARY
5
D
100
AcDbDictionary
0
DICTIONARY
5
1A
330
C
100
AcDbDictionary
0
DICTIONARY
5
17
100
AcDbDictionary
0
ENDSEC
0
EOF
